HIERARCHY
ROOT mixamorig_Hips
{
	OFFSET -0.000329 0.934763 0.013172
	CHANNELS 6 Xposition Yposition Zposition Xrotation Yrotation Zrotation
	JOINT mixamorig_Spine
	{
		OFFSET -0.000531 0.096594 0.001533
		CHANNELS 3 Xrotation Yrotation Zrotation
		JOINT mixamorig_Spine1
		{
			OFFSET -0.000284 0.099406 -0.006202
			CHANNELS 3 Xrotation Yrotation Zrotation
			JOINT mixamorig_Spine2
			{
				OFFSET -0.000665 0.100821 -0.005436
				CHANNELS 3 Xrotation Yrotation Zrotation
				JOINT mixamorig_Neck
				{
					OFFSET -0.003569 0.181005 -0.017910
					CHANNELS 3 Xrotation Yrotation Zrotation
					JOINT mixamorig_Head
					{
						OFFSET -0.000567 0.090675 0.004608
						CHANNELS 3 Xrotation Yrotation Zrotation
						End Site
						{
							OFFSET -0.027755 0.065308 0.087730
						}
						End Site
						{
							OFFSET 0.030266 0.066100 0.089151
						}
						End Site
						{
							OFFSET 0.000889 0.164225 0.030118
						}
					}
				}
				JOINT mixamorig_LeftShoulder
				{
					OFFSET 0.040153 0.123825 -0.018173
					CHANNELS 3 Xrotation Yrotation Zrotation
					JOINT mixamorig_LeftArm
					{
						OFFSET 0.096846 -0.006770 -0.015789
						CHANNELS 3 Xrotation Yrotation Zrotation
						JOINT mixamorig_LeftForeArm
						{
							OFFSET 0.260836 0.000158 -0.012098
							CHANNELS 3 Xrotation Yrotation Zrotation
							JOINT mixamorig_LeftHand
							{
								OFFSET 0.260721 0.009445 0.003518
								CHANNELS 3 Xrotation Yrotation Zrotation
								JOINT mixamorig_LeftHandThumb1
								{
									OFFSET 0.020007 -0.013915 0.025888
									CHANNELS 3 Xrotation Yrotation Zrotation
									JOINT mixamorig_LeftHandThumb2
									{
										OFFSET 0.024753 -0.016879 0.017465
										CHANNELS 3 Xrotation Yrotation Zrotation
										JOINT mixamorig_LeftHandThumb3
										{
											OFFSET 0.022267 -0.009924 0.010944
											CHANNELS 3 Xrotation Yrotation Zrotation
											End Site
											{
												OFFSET 0.012616 -0.008684 0.013475
											}
										}
									}
								}
								JOINT mixamorig_LeftHandIndex1
								{
									OFFSET 0.075712 -0.004005 0.022878
									CHANNELS 3 Xrotation Yrotation Zrotation
									JOINT mixamorig_LeftHandIndex2
									{
										OFFSET 0.032025 0.000805 0.000360
										CHANNELS 3 Xrotation Yrotation Zrotation
										JOINT mixamorig_LeftHandIndex3
										{
											OFFSET 0.021636 -0.000922 0.001709
											CHANNELS 3 Xrotation Yrotation Zrotation
											End Site
											{
												OFFSET 0.022272 0.000343 -0.000989
											}
										}
									}
								}
								JOINT mixamorig_LeftHandMiddle1
								{
									OFFSET 0.077672 0.000197 0.003119
									CHANNELS 3 Xrotation Yrotation Zrotation
									JOINT mixamorig_LeftHandMiddle2
									{
										OFFSET 0.028817 -0.000836 0.000007
										CHANNELS 3 Xrotation Yrotation Zrotation
										JOINT mixamorig_LeftHandMiddle3
										{
											OFFSET 0.027734 -0.001265 -0.001079
											CHANNELS 3 Xrotation Yrotation Zrotation
											End Site
											{
												OFFSET 0.021544 0.002739 0.001746
											}
										}
									}
								}
								JOINT mixamorig_LeftHandRing1
								{
									OFFSET 0.072647 0.000468 -0.012545
									CHANNELS 3 Xrotation Yrotation Zrotation
									JOINT mixamorig_LeftHandRing2
									{
										OFFSET 0.023428 0.001297 -0.001540
										CHANNELS 3 Xrotation Yrotation Zrotation
										JOINT mixamorig_LeftHandRing3
										{
											OFFSET 0.025300 -0.000202 0.000300
											CHANNELS 3 Xrotation Yrotation Zrotation
											End Site
											{
												OFFSET 0.021378 -0.000642 0.000026
											}
										}
									}
								}
								JOINT mixamorig_LeftHandPinky1
								{
									OFFSET 0.067362 -0.004561 -0.028241
									CHANNELS 3 Xrotation Yrotation Zrotation
									JOINT mixamorig_LeftHandPinky2
									{
										OFFSET 0.024539 0.000905 -0.001802
										CHANNELS 3 Xrotation Yrotation Zrotation
										JOINT mixamorig_LeftHandPinky3
										{
											OFFSET 0.016774 0.000497 -0.000418
											CHANNELS 3 Xrotation Yrotation Zrotation
											End Site
											{
												OFFSET 0.016253 0.001664 -0.000439
											}
										}
									}
								}
							}
						}
					}
				}
				JOINT mixamorig_RightShoulder
				{
					OFFSET -0.044710 0.123416 -0.018691
					CHANNELS 3 Xrotation Yrotation Zrotation
					JOINT mixamorig_RightArm
					{
						OFFSET -0.093285 -0.007451 -0.015294
						CHANNELS 3 Xrotation Yrotation Zrotation
						JOINT mixamorig_RightForeArm
						{
							OFFSET -0.260082 -0.000676 -0.016999
							CHANNELS 3 Xrotation Yrotation Zrotation
							JOINT mixamorig_RightHand
							{
								OFFSET -0.269354 0.006819 -0.001623
								CHANNELS 3 Xrotation Yrotation Zrotation
								JOINT mixamorig_RightHandPinky1
								{
									OFFSET -0.068944 -0.004710 -0.027276
									CHANNELS 3 Xrotation Yrotation Zrotation
									JOINT mixamorig_RightHandPinky2
									{
										OFFSET -0.028424 0.000709 -0.002294
										CHANNELS 3 Xrotation Yrotation Zrotation
										JOINT mixamorig_RightHandPinky3
										{
											OFFSET -0.014087 -0.000537 -0.000408
											CHANNELS 3 Xrotation Yrotation Zrotation
											End Site
											{
												OFFSET -0.016161 0.000319 -0.000701
											}
										}
									}
								}
								JOINT mixamorig_RightHandRing1
								{
									OFFSET -0.073644 -0.000271 -0.011566
									CHANNELS 3 Xrotation Yrotation Zrotation
									JOINT mixamorig_RightHandRing2
									{
										OFFSET -0.022262 0.002187 -0.001227
										CHANNELS 3 Xrotation Yrotation Zrotation
										JOINT mixamorig_RightHandRing3
										{
											OFFSET -0.024959 0.000014 0.001033
											CHANNELS 3 Xrotation Yrotation Zrotation
											End Site
											{
												OFFSET -0.020342 -0.002927 -0.000438
											}
										}
									}
								}
								JOINT mixamorig_RightHandMiddle1
								{
									OFFSET -0.078465 0.000178 0.003924
									CHANNELS 3 Xrotation Yrotation Zrotation
									JOINT mixamorig_RightHandMiddle2
									{
										OFFSET -0.030586 0.000877 -0.000514
										CHANNELS 3 Xrotation Yrotation Zrotation
										JOINT mixamorig_RightHandMiddle3
										{
											OFFSET -0.024860 -0.001171 -0.001812
											CHANNELS 3 Xrotation Yrotation Zrotation
											End Site
											{
												OFFSET -0.022346 -0.000216 0.001043
											}
										}
									}
								}
								JOINT mixamorig_RightHandIndex1
								{
									OFFSET -0.077138 -0.004903 0.023488
									CHANNELS 3 Xrotation Yrotation Zrotation
									JOINT mixamorig_RightHandIndex2
									{
										OFFSET -0.032982 0.000016 -0.000651
										CHANNELS 3 Xrotation Yrotation Zrotation
										JOINT mixamorig_RightHandIndex3
										{
											OFFSET -0.021521 -0.001038 0.000640
											CHANNELS 3 Xrotation Yrotation Zrotation
											End Site
											{
												OFFSET -0.019633 -0.001183 -0.002236
											}
										}
									}
								}
								JOINT mixamorig_RightHandThumb1
								{
									OFFSET -0.019217 -0.014120 0.025973
									CHANNELS 3 Xrotation Yrotation Zrotation
									JOINT mixamorig_RightHandThumb2
									{
										OFFSET -0.024531 -0.016682 0.017772
										CHANNELS 3 Xrotation Yrotation Zrotation
										JOINT mixamorig_RightHandThumb3
										{
											OFFSET -0.020595 -0.008213 0.010052
											CHANNELS 3 Xrotation Yrotation Zrotation
											End Site
											{
												OFFSET -0.018779 -0.008914 0.011284
											}
										}
									}
								}
							}
						}
					}
				}
			}
		}
	}
	JOINT mixamorig_LeftUpLeg
	{
		OFFSET 0.082644 -0.061097 -0.015299
		CHANNELS 3 Xrotation Yrotation Zrotation
		JOINT mixamorig_LeftLeg
		{
			OFFSET 0.011706 -0.407894 -0.000411
			CHANNELS 3 Xrotation Yrotation Zrotation
			JOINT mixamorig_LeftFoot
			{
				OFFSET -0.009807 -0.381384 -0.042699
				CHANNELS 3 Xrotation Yrotation Zrotation
				JOINT mixamorig_LeftToeBase
				{
					OFFSET -0.009374 -0.069665 0.102141
					CHANNELS 3 Xrotation Yrotation Zrotation
					End Site
					{
						OFFSET -0.003020 -0.006885 0.094051
					}
				}
			}
		}
	}
	JOINT mixamorig_RightUpLeg
	{
		OFFSET -0.081973 -0.063719 -0.012470
		CHANNELS 3 Xrotation Yrotation Zrotation
		JOINT mixamorig_RightLeg
		{
			OFFSET -0.006811 -0.412091 0.011100
			CHANNELS 3 Xrotation Yrotation Zrotation
			JOINT mixamorig_RightFoot
			{
				OFFSET 0.004573 -0.370721 -0.055504
				CHANNELS 3 Xrotation Yrotation Zrotation
				JOINT mixamorig_RightToeBase
				{
					OFFSET 0.011350 -0.073821 0.101054
					CHANNELS 3 Xrotation Yrotation Zrotation
					End Site
					{
						OFFSET 0.000203 -0.006417 0.095416
					}
				}
			}
		}
	}
}
MOTION
Frames: 5
Frame Time: 0.03333333333333333
-0.002029 0.018326 -0.026249 -0.072727 9.842658 -5.714206 5.313894 -0.917921 3.489286 -0.642703 0.623574 5.747702 -0.167180 1.148097 5.838851 1.347244 -0.441124 -1.962263 2.701141 -0.067350 -7.850766 4.477139 -13.956230 -2.518202 -2.147644 -8.932894 -84.038549 0.083816 -11.045735 -1.061017 -28.458411 -3.674890 -11.406293 36.678575 9.943641 -18.124567 -17.000999 12.418873 -0.667086 -2.624656 -8.926734 -3.201219 0.643625 7.078809 7.914648 -0.509415 1.373207 -23.380590 -0.658476 -0.061041 -14.211176 0.000001 -0.000003 0.000000 0.000001 0.000002 0.000000 0.000002 0.000002 -0.000000 -0.000001 -0.000000 0.000000 -0.000002 -0.000001 0.000000 -0.000010 -0.000002 -0.000000 -0.000001 -0.000001 0.000000 0.000001 -0.000002 0.000000 -0.000004 0.000002 0.000001 3.723987 3.693426 5.066418 -7.302098 -2.800645 67.995774 0.094257 14.304366 0.426109 -12.474040 -3.633458 15.793561 -0.000004 0.000002 -0.000000 -0.000004 0.000002 -0.000001 -0.000004 0.000001 -0.000001 -0.000004 0.000001 -0.000001 -0.000004 0.000001 0.000000 -0.000005 -0.000001 0.000006 -0.000007 -0.000001 0.000001 -0.000000 -0.000002 -0.000000 0.000009 -0.000001 0.000001 0.967070 -7.598767 -21.984148 -0.963273 -0.858098 34.269370 -1.603386 0.966514 22.540842 33.850456 -10.324109 15.736842 -17.670054 -11.418587 -1.075479 -2.687743 3.779783 1.784426 -23.725704 10.374682 12.705082 23.986952 10.332413 9.182831 -3.102795 4.027113 -11.414796 0.000000 -0.000000 -0.000000 -2.418777 -4.934998 10.789841 7.903631 -5.365270 4.900170 -9.664201 1.895083 -9.407761 0.000000 0.000000 -0.000000 
-0.001919 0.018356 -0.025979 -0.065198 9.847755 -5.720604 5.308511 -0.911570 3.482158 -0.647321 0.624972 5.748501 -0.171786 1.149653 5.839685 1.351111 -0.432080 -1.966538 2.704184 -0.020067 -7.880787 4.480507 -13.913879 -2.498185 -2.167189 -8.910984 -84.067902 0.083601 -11.034981 -1.061780 -28.458146 -3.676562 -11.430743 36.677916 9.940430 -18.124227 -17.000740 12.415595 -0.666902 -2.624382 -8.930017 -3.201156 0.643586 7.078830 7.913513 -0.509453 1.373270 -23.381714 -0.658528 -0.061008 -14.212287 0.000001 -0.000003 0.000000 0.000000 0.000001 0.000000 0.000002 0.000001 -0.000000 -0.000001 -0.000002 0.000000 -0.000001 -0.000001 -0.000000 -0.000010 -0.000001 -0.000000 -0.000001 -0.000001 0.000000 0.000000 -0.000001 0.000000 -0.000004 0.000002 0.000001 3.721516 3.711009 5.082412 -7.295545 -2.832993 67.994068 0.094308 14.305856 0.426011 -12.477749 -3.630078 15.775365 -0.000004 0.000002 -0.000000 -0.000004 0.000002 -0.000000 -0.000004 0.000000 -0.000001 -0.000003 0.000002 -0.000001 -0.000004 0.000001 0.000001 -0.000005 -0.000001 0.000006 -0.000007 -0.000002 0.000001 -0.000000 -0.000002 -0.000001 0.000009 -0.000001 0.000001 0.967009 -7.598792 -21.983029 -0.963297 -0.858142 34.270428 -1.603475 0.966459 22.541972 33.849991 -10.320822 15.736686 -17.669659 -11.415349 -1.075489 -2.687463 3.783038 1.784476 -23.730322 10.372769 12.707636 24.011109 10.334429 9.186363 -3.103082 4.016461 -11.415513 0.000000 -0.000000 -0.000000 -2.389644 -4.928601 10.795254 7.865226 -5.351451 4.893637 -9.661416 1.893256 -9.400070 0.000000 0.000000 -0.000000 
-0.001812 0.018397 -0.025708 -0.058858 9.857380 -5.728258 5.302416 -0.908575 3.474562 -0.653840 0.625386 5.747858 -0.178339 1.150343 5.839053 1.355921 -0.424669 -1.967685 2.704250 0.019418 -7.905911 4.483975 -13.877769 -2.466230 -2.180624 -8.896120 -84.107909 0.083519 -11.030322 -1.062126 -28.455599 -3.678379 -11.450002 36.676565 9.933928 -18.123555 -17.000244 12.408977 -0.666496 -2.623802 -8.936649 -3.201034 0.643498 7.078871 7.911269 -0.509516 1.373356 -23.383993 -0.658603 -0.060925 -14.214558 0.000001 -0.000003 0.000000 0.000001 0.000001 -0.000000 0.000002 0.000001 -0.000000 -0.000001 -0.000002 0.000000 -0.000002 -0.000001 -0.000000 -0.000010 -0.000001 -0.000000 -0.000000 -0.000001 0.000000 0.000000 -0.000001 -0.000000 -0.000004 0.000001 0.000000 3.724186 3.720554 5.087410 -7.295014 -2.862606 68.004714 0.094295 14.305103 0.426080 -12.489301 -3.635236 15.778481 -0.000004 0.000002 -0.000000 -0.000004 0.000002 -0.000001 -0.000004 0.000001 -0.000000 -0.000003 0.000002 -0.000001 -0.000004 0.000000 0.000001 -0.000005 -0.000002 0.000006 -0.000007 -0.000001 0.000001 -0.000000 -0.000003 -0.000001 0.000009 -0.000002 0.000001 0.966940 -7.598806 -21.980784 -0.963341 -0.858222 34.272694 -1.603604 0.966335 22.544225 33.849075 -10.314228 15.736317 -17.668886 -11.408739 -1.075545 -2.686871 3.789656 1.784659 -23.727626 10.368658 12.708235 24.024250 10.335431 9.191652 -3.107798 4.004430 -11.416279 0.000000 -0.000000 -0.000000 -2.354235 -4.920452 10.805079 7.816379 -5.347380 4.882682 -9.654381 1.890659 -9.390087 0.000000 0.000000 -0.000000 
-0.001705 0.018438 -0.025440 -0.052943 9.869530 -5.736832 5.296032 -0.908986 3.466359 -0.662468 0.624933 5.746551 -0.187023 1.150303 5.837729 1.360378 -0.419104 -1.965813 2.699195 0.051669 -7.926866 4.487934 -13.843722 -2.421241 -2.187159 -8.888087 -84.156884 0.083555 -11.031737 -1.062028 -28.457586 -3.675345 -11.469748 36.674503 9.923839 -18.122519 -16.999468 12.398727 -0.665879 -2.622909 -8.946911 -3.200835 0.643375 7.078942 7.907786 -0.509590 1.373493 -23.387498 -0.658729 -0.060793 -14.218064 0.000001 -0.000003 0.000000 0.000001 0.000001 0.000000 0.000002 0.000001 -0.000000 -0.000001 -0.000001 0.000000 -0.000002 -0.000001 0.000000 -0.000010 -0.000001 -0.000000 -0.000000 -0.000001 -0.000000 0.000001 -0.000001 0.000000 -0.000004 0.000001 0.000000 3.731932 3.722539 5.082740 -7.300051 -2.880998 68.021540 0.094219 14.301679 0.426321 -12.505389 -3.647218 15.794276 -0.000004 0.000002 0.000000 -0.000004 0.000003 -0.000001 -0.000004 0.000000 -0.000001 -0.000003 0.000002 -0.000001 -0.000004 0.000000 0.000001 -0.000005 -0.000002 0.000006 -0.000007 -0.000001 0.000001 -0.000000 -0.000003 -0.000001 0.000009 -0.000002 0.000001 0.966850 -7.598831 -21.977298 -0.963403 -0.858363 34.276207 -1.603790 0.966151 22.547719 33.847648 -10.304030 15.735765 -17.667684 -11.398499 -1.075620 -2.685943 3.799909 1.784933 -23.720814 10.363055 12.707313 24.031117 10.335930 9.197870 -3.119747 3.993706 -11.414535 0.000000 -0.000000 -0.000000 -2.317525 -4.912381 10.816850 7.765768 -5.350051 4.870176 -9.647040 1.887874 -9.378927 0.000000 0.000000 -0.000000 
-0.001596 0.018471 -0.025178 -0.046909 9.881659 -5.745927 5.289594 -0.911990 3.457527 -0.673041 0.623845 5.745237 -0.197659 1.149774 5.836378 1.363681 -0.415227 -1.961660 2.687946 0.078094 -7.943963 4.492571 -13.809107 -2.362605 -2.186659 -8.885168 -84.214073 0.083683 -11.038379 -1.061545 -28.469386 -3.664831 -11.492798 36.671710 9.910080 -18.121102 -16.998396 12.384764 -0.665043 -2.621705 -8.960891 -3.200558 0.643219 7.079044 7.903026 -0.509680 1.373675 -23.392257 -0.658907 -0.060623 -14.222831 0.000000 -0.000004 0.000000 0.000001 0.000002 0.000000 0.000001 0.000002 0.000000 -0.000001 -0.000002 0.000000 -0.000001 -0.000001 0.000000 -0.000010 -0.000001 -0.000000 -0.000001 -0.000002 -0.000000 0.000001 -0.000000 0.000000 -0.000002 0.000002 0.000000 3.744454 3.718265 5.069592 -7.308978 -2.881627 68.039886 0.094099 14.295831 0.426717 -12.523309 -3.663228 15.813071 -0.000004 0.000002 -0.000000 -0.000004 0.000003 -0.000000 -0.000004 0.000000 -0.000001 -0.000003 0.000002 -0.000001 -0.000004 0.000001 0.000001 -0.000005 -0.000001 0.000006 -0.000007 -0.000001 0.000001 -0.000000 -0.000002 -0.000001 0.000009 -0.000002 0.000001 0.966729 -7.598878 -21.972537 -0.963483 -0.858570 34.280982 -1.604048 0.965901 22.552489 33.845689 -10.290124 15.735040 -17.666043 -11.384555 -1.075721 -2.684670 3.813880 1.785296 -23.713397 10.356881 12.705711 24.037092 10.336482 9.204210 -3.139211 3.986389 -11.409373 0.000000 -0.000000 -0.000000 -2.283686 -4.905938 10.828097 7.720716 -5.355114 4.859037 -9.642451 1.885427 -9.367908 0.000000 0.000000 -0.000000 
